<svg width="128" height="128" viewBox="0 0 128 128" fill="none" xmlns="http://www.w3.org/2000/svg">
  <rect width="128" height="128" rx="26" fill="url(#seeker_bg)"/>
  <circle cx="64" cy="58" r="28" fill="url(#seeker_seed)"/>
  <path d="M64 38C64 38 50 50 50 62C50 74 56 82 64 86C72 82 78 74 78 62C78 50 64 38 64 38Z" fill="url(#seeker_leaf)"/>
  <path d="M64 48V72" stroke="#FFFFFF" stroke-width="3" stroke-linecap="round"/>
  <path d="M54 60C54 60 58 64 64 64C70 64 74 60 74 60" stroke="#FFFFFF" stroke-width="3" stroke-linecap="round"/>
  <text x="64" y="104" font-family="system-ui, -apple-system, sans-serif" font-size="14" font-weight="600" fill="white" text-anchor="middle">SEEKER</text>
  <defs>
    <linearGradient id="seeker_bg" x1="0" y1="0" x2="128" y2="128" gradientUnits="userSpaceOnUse">
      <stop stop-color="#00D4AA"/>
      <stop offset="1" stop-color="#00A67E"/>
    </linearGradient>
    <linearGradient id="seeker_seed" x1="36" y1="30" x2="92" y2="86" gradientUnits="userSpaceOnUse">
      <stop stop-color="#FFFFFF" stop-opacity="0.3"/>
      <stop offset="1" stop-color="#FFFFFF" stop-opacity="0.1"/>
    </linearGradient>
    <linearGradient id="seeker_leaf" x1="50" y1="38" x2="78" y2="86" gradientUnits="userSpaceOnUse">
      <stop stop-color="#FFFFFF"/>
      <stop offset="1" stop-color="#E0FFF6"/>
    </linearGradient>
  </defs>
</svg>
